<svg width="24" height="24" viewBox="0 0 24 24" fill="none" xmlns="http://www.w3.org/2000/svg">
<g id="Icon/ Account/ 24 px" clip-path="url(#clip0_187_57)">
<path id="Vector" d="M0.979004 22.5418C1.02493 21.1933 1.35131 19.8692 1.93734 18.6539C2.61296 17.3026 5.43525 16.3663 8.97821 15.0544C9.93655 14.6988 9.77938 12.1976 9.35484 11.7309C8.35817 10.6355 7.51484 9.35037 7.51484 6.25016C7.51484 3.1212 9.55609 1.4585 11.9998 1.4585C14.4436 1.4585 16.4848 3.1212 16.4848 6.25016C16.4848 9.35037 15.6405 10.6355 14.6448 11.7309C14.2203 12.1976 14.0631 14.7017 15.0215 15.0544C18.5673 16.3663 21.3867 17.3026 22.0623 18.6539C22.6484 19.8692 22.9747 21.1933 23.0207 22.5418H0.979004Z" stroke="#222020" stroke-linecap="round" stroke-linejoin="round"/>
</g>
<defs>
<clipPath id="clip0_187_57">
<rect width="24" height="24" fill="white"/>
</clipPath>
</defs>
</svg>
