<svg width="24" height="24" viewBox="0 0 24 24" fill="none" xmlns="http://www.w3.org/2000/svg">
<g id="Icon/ Basket/ 24 px">
<path id="Vector" d="M20.3001 21.2957C20.2559 21.5123 20.1381 21.707 19.9668 21.8467C19.7955 21.9864 19.5811 22.0626 19.36 22.0623H4.64C4.41891 22.0626 4.20453 21.9864 4.03319 21.8467C3.86185 21.707 3.74409 21.5123 3.69988 21.2957L1.9375 12.479H22.0625L20.3001 21.2957Z" stroke="#222020" stroke-linecap="round" stroke-linejoin="round"/>
<path id="Vector_2" d="M1.93734 9.604H22.0623C22.0623 9.604 23.0207 9.604 23.0207 10.5623V11.5207C23.0207 11.5207 23.0207 12.479 22.0623 12.479H1.93734C1.93734 12.479 0.979004 12.479 0.979004 11.5207V10.5623C0.979004 10.5623 0.979004 9.604 1.93734 9.604Z" stroke="#222020" stroke-linecap="round" stroke-linejoin="round"/>
<path id="Vector_3" d="M3.854 7.6875L9.604 1.9375" stroke="#222020" stroke-linecap="round" stroke-linejoin="round"/>
<path id="Vector_4" d="M20.146 7.6875L14.396 1.9375" stroke="#222020" stroke-linecap="round" stroke-linejoin="round"/>
</g>
</svg>
