<svg width="64" height="64" viewBox="0 0 64 64" fill="none" xmlns="http://www.w3.org/2000/svg">
<g id="diamond-hold-1">
<path id="Vector" d="M60.7603 60.75V32.6388" stroke="#B69091" stroke-linecap="round" stroke-linejoin="round"/>
<path id="Vector_2" d="M55.4906 32.639C55.9098 29.3272 55.5117 25.9631 54.331 22.8406C53.1503 19.7182 51.223 16.9323 48.7174 14.7265C46.2118 12.5206 43.2042 10.9619 39.9572 10.1864C36.7103 9.41092 33.3229 9.44233 30.0909 10.2779C29.5917 10.4006 29.1237 10.6267 28.7173 10.9416C28.3109 11.2565 27.9751 11.6532 27.7316 12.106C27.4881 12.5588 27.3423 13.0577 27.3036 13.5704C27.265 14.083 27.3344 14.5981 27.5073 15.0823C27.8551 16.0247 28.5376 16.806 29.4246 17.2774C30.3117 17.7487 31.3412 17.877 32.3168 17.6379C34.1401 17.2149 36.0341 17.1978 37.8648 17.5875C39.6954 17.9773 41.4181 18.7645 42.911 19.8934C44.4039 21.0223 45.6306 22.4655 46.5043 24.1208C47.378 25.7761 47.8773 27.6031 47.967 29.4726C48.0518 31.433 47.374 33.35 46.0759 34.8214L43.3773 37.9034C42.9169 38.4312 42.3529 38.8588 41.7204 39.1596C41.0879 39.4603 40.4003 39.6279 39.7004 39.6519C39.0004 39.6758 38.303 39.5557 37.6514 39.2989C36.9998 39.0421 36.4079 38.6541 35.9125 38.159L30.6608 32.9073C29.942 32.1882 28.967 31.7841 27.9503 31.7838C26.9335 31.7836 25.9583 32.1872 25.2392 32.906C24.5201 33.6248 24.116 34.5998 24.1157 35.6166C24.1155 36.6333 24.5192 37.6085 25.2379 38.3276L34.765 49.1223C36.6822 51.0389 37.7596 53.6385 37.7602 56.3494V60.7501" stroke="#B69091" stroke-linecap="round" stroke-linejoin="round"/>
<path id="Vector_3" d="M53.604 21.1619C55.7501 22.2151 57.5581 23.8487 58.8228 25.8773C60.0876 27.9059 60.7586 30.2484 60.7596 32.6389" stroke="#B69091" stroke-linecap="round" stroke-linejoin="round"/>
<path id="Vector_4" d="M9.64914 36.4722C9.5366 37.3379 9.62435 38.2178 9.90563 39.0442C10.1869 39.8706 10.6542 40.6214 11.2715 41.2387C11.8888 41.856 12.6396 42.3233 13.466 42.6046C14.2924 42.8859 15.1723 42.9736 16.038 42.8611C11.9108 42.8457 9.8587 45.0588 9.64914 49.2499C9.77242 48.3822 9.69214 47.4977 9.41466 46.6663C9.13718 45.835 8.67011 45.0796 8.05037 44.4598C7.43063 43.8401 6.67522 43.373 5.84386 43.0955C5.0125 42.8181 4.12799 42.7378 3.26025 42.8611C4.12584 42.9731 5.00558 42.885 5.83175 42.6035C6.65793 42.322 7.40849 41.8547 8.02565 41.2376C8.64282 40.6204 9.11012 39.8698 9.39158 39.0437C9.67304 38.2175 9.76116 37.3378 9.64914 36.4722Z" stroke="#B69091" stroke-linecap="round" stroke-linejoin="round"/>
<path id="Vector_5" d="M9.92041 22.4167H32.3786" stroke="#B69091" stroke-linecap="round" stroke-linejoin="round"/>
<path id="Vector_6" d="M27.4007 14.75H14.2728C14.0357 14.75 13.8033 14.816 13.6015 14.9406C13.3998 15.0651 13.2367 15.2434 13.1305 15.4553L10.0382 21.6372C9.92363 21.8669 9.88086 22.1258 9.9155 22.3802C9.95014 22.6345 10.0606 22.8725 10.2325 23.0632L20.1991 34.139C20.319 34.2724 20.4655 34.3791 20.6293 34.4522C20.7931 34.5252 20.9705 34.563 21.1498 34.563C21.3291 34.563 21.5065 34.5252 21.6703 34.4522C21.8341 34.3791 21.9806 34.2724 22.1005 34.139L32.0671 23.0632C32.239 22.8725 32.3494 22.6345 32.3841 22.3802C32.4187 22.1258 32.376 21.8669 32.2614 21.6372L30.2322 17.5841" stroke="#B69091" stroke-linecap="round" stroke-linejoin="round"/>
<path id="Vector_7" d="M5.81641 7.08333H13.4831" stroke="#B69091" stroke-linecap="round" stroke-linejoin="round"/>
<path id="Vector_8" d="M9.6499 3.25V10.9167" stroke="#B69091" stroke-linecap="round" stroke-linejoin="round"/>
</g>
</svg>
