<svg width="64" height="64" viewBox="0 0 64 64" fill="none" xmlns="http://www.w3.org/2000/svg">
<g id="engagement-ring 1">
<path id="Vector" d="M31.9999 8.01611C29.1888 -0.637005 19.2222 1.96455 19.2222 9.73088C19.2222 16.1198 30.1548 24.525 31.9999 25.8973C33.8451 24.525 44.7777 16.1198 44.7777 9.73088C44.7777 1.96455 34.8111 -0.637005 31.9999 8.01611Z" stroke="#B69091" stroke-linecap="round" stroke-linejoin="round"/>
<path id="Vector_2" d="M22.9458 25.3249C19.1721 27.3479 16.1845 30.5763 14.4594 34.4951C12.7343 38.4139 12.3711 42.7975 13.4277 46.9469C14.4842 51.0962 16.8997 54.7722 20.289 57.3888C23.6782 60.0053 27.846 61.4117 32.1276 61.3835C36.4092 61.3554 40.5581 59.8944 43.9127 57.2335C47.2672 54.5727 49.6342 50.8652 50.6362 46.7023C51.6381 42.5395 51.2173 38.161 49.4408 34.2652C47.6644 30.3694 44.6346 27.1806 40.8347 25.2073" stroke="#B69091" stroke-linecap="round" stroke-linejoin="round"/>
<path id="Vector_3" d="M28.0567 29.6463C25.0437 30.5925 22.4707 32.5896 20.8067 35.2738C19.1426 37.958 18.4982 41.1506 18.9909 44.2701C19.4835 47.3896 21.0804 50.2283 23.4907 52.2691C25.9009 54.3099 28.964 55.4169 32.1221 55.3885C35.2801 55.36 38.3228 54.1981 40.6959 52.1143C43.069 50.0304 44.6146 47.1634 45.051 44.0356C45.4874 40.9077 44.7857 37.7272 43.0736 35.0734C41.3615 32.4196 38.753 30.4691 35.7234 29.5773" stroke="#B69091" stroke-linecap="round" stroke-linejoin="round"/>
</g>
</svg>
