<svg width="64" height="64" viewBox="0 0 64 64" fill="none" xmlns="http://www.w3.org/2000/svg">
<g id="gift-box-3">
<path id="Vector" d="M61.3881 28.1667C61.3881 28.8444 61.1189 29.4945 60.6396 29.9737C60.1604 30.453 59.5104 30.7222 58.8326 30.7222H5.16591C4.48813 30.7222 3.83812 30.453 3.35886 29.9737C2.8796 29.4945 2.61035 28.8444 2.61035 28.1667V23.0556C2.61035 22.3778 2.8796 21.7278 3.35886 21.2485C3.83812 20.7692 4.48813 20.5 5.16591 20.5H58.8326C59.5104 20.5 60.1604 20.7692 60.6396 21.2485C61.1189 21.7278 61.3881 22.3778 61.3881 23.0556V28.1667Z" stroke="#B69091" stroke-linecap="round" stroke-linejoin="round"/>
<path id="Vector_2" d="M56.2782 58.8333C56.2782 59.5111 56.009 60.1611 55.5297 60.6403C55.0504 61.1196 54.4004 61.3888 53.7227 61.3888H10.2782C9.94261 61.3888 9.6103 61.3227 9.30024 61.1943C8.99019 61.0659 8.70847 60.8776 8.47116 60.6403C7.9919 60.1611 7.72266 59.5111 7.72266 58.8333V30.7222H56.2782V58.8333Z" stroke="#B69091" stroke-linecap="round" stroke-linejoin="round"/>
<path id="Vector_3" d="M23.0557 20.5V61.3889" stroke="#B69091" stroke-linecap="round" stroke-linejoin="round"/>
<path id="Vector_4" d="M40.9443 61.3889V20.5" stroke="#B69091" stroke-linecap="round" stroke-linejoin="round"/>
<path id="Vector_5" d="M45.8691 11.1466C43.9167 13.1016 34.5557 15.3888 34.5557 15.3888C34.5557 15.3888 36.8557 6.02782 38.7979 4.07537C39.2585 3.59486 39.8105 3.21114 40.4213 2.94671C41.0322 2.68228 41.6897 2.54246 42.3553 2.53543C43.021 2.52841 43.6813 2.65434 44.2976 2.90582C44.9139 3.15731 45.4738 3.5293 45.9445 3.99998C46.4152 4.47067 46.7872 5.03058 47.0387 5.64689C47.2901 6.26321 47.4161 6.92352 47.409 7.58914C47.402 8.25475 47.2622 8.91226 46.9978 9.52313C46.7333 10.134 46.3496 10.6859 45.8691 11.1466Z" stroke="#B69091" stroke-linecap="round" stroke-linejoin="round"/>
<path id="Vector_6" d="M18.1303 11.1466C20.0827 13.1016 29.4437 15.3889 29.4437 15.3889C29.4437 15.3889 27.1437 6.02785 25.2015 4.07541C24.2572 3.17014 22.9958 2.67088 21.6877 2.68468C20.3797 2.69848 19.1291 3.22424 18.2041 4.14923C17.2791 5.07422 16.7533 6.32481 16.7395 7.63287C16.7257 8.94093 17.225 10.2023 18.1303 11.1466Z" stroke="#B69091" stroke-linecap="round" stroke-linejoin="round"/>
</g>
</svg>
