<svg width="64" height="64" viewBox="0 0 64 64" fill="none" xmlns="http://www.w3.org/2000/svg">
<g id="crafts-necklace-2">
<path id="Vector" d="M32.0358 21.7778L23.6254 27.7833C23.46 27.9017 23.3253 28.0578 23.2324 28.2387C23.1395 28.4196 23.0911 28.6201 23.0913 28.8234V35.1765C23.0911 35.3799 23.1395 35.5804 23.2324 35.7613C23.3253 35.9422 23.46 36.0983 23.6254 36.2167L32.0358 42.2222L40.4461 36.2167C40.6115 36.0983 40.7462 35.9422 40.8391 35.7613C40.932 35.5804 40.9804 35.3799 40.9802 35.1765V28.8234C40.9804 28.6201 40.932 28.4196 40.8391 28.2387C40.7462 28.0578 40.6115 27.9017 40.4461 27.7833L32.0358 21.7778Z" stroke="#B69091" stroke-linecap="round" stroke-linejoin="round"/>
<path id="Vector_2" d="M28.2026 33.2778V30.7222L32.036 28.1667" stroke="#B69091" stroke-linecap="round" stroke-linejoin="round"/>
<path id="Vector_3" d="M16.6665 2.61111C16.6665 2.61111 16.8888 3.56689 17.3846 5.05423" stroke="#B69091" stroke-linecap="round" stroke-linejoin="round"/>
<path id="Vector_4" d="M18.8848 8.89522C20.6979 13.3906 23.7811 17.2606 27.7577 20.0323" stroke="#B69091" stroke-linecap="round" stroke-linejoin="round"/>
<path id="Vector_5" d="M47.3333 2.61111C47.3333 2.61111 47.111 3.56689 46.6152 5.05423" stroke="#B69091" stroke-linecap="round" stroke-linejoin="round"/>
<path id="Vector_6" d="M45.1151 8.89522C43.302 13.3906 40.2188 17.2606 36.2422 20.0323" stroke="#B69091" stroke-linecap="round" stroke-linejoin="round"/>
<path id="Vector_7" d="M34.4074 20.9855C33.6325 21.3269 32.8263 21.5922 32.0001 21.7778C31.1739 21.5922 30.3677 21.3269 29.5928 20.9855" stroke="#B69091" stroke-linecap="round" stroke-linejoin="round"/>
<path id="Vector_8" d="M10.278 61.3889L5.13111 54.9566C3.49943 52.9168 2.61076 50.3824 2.61133 47.7703V34.5556C2.61133 33.5389 3.0152 32.5639 3.73409 31.845C4.45298 31.1261 5.428 30.7222 6.44466 30.7222C6.94806 30.7222 7.44653 30.8214 7.91161 31.014C8.3767 31.2067 8.79928 31.489 9.15524 31.845C9.5112 32.2009 9.79356 32.6235 9.9862 33.0886C10.1788 33.5537 10.278 34.0522 10.278 34.5556V44.4583" stroke="#B69091" stroke-linecap="round" stroke-linejoin="round"/>
<path id="Vector_9" d="M21.7778 61.3889V53.3747C21.7798 51.1004 21.1065 48.8768 19.8432 46.9858L16.9222 42.6158C16.6732 42.2005 16.3425 41.8402 15.9501 41.5565C15.5577 41.2728 15.1119 41.0717 14.6395 40.9654C14.1672 40.8591 13.6781 40.8497 13.2021 40.9379C12.726 41.0261 12.2728 41.2101 11.8699 41.4786C11.1445 41.9625 10.6209 42.6947 10.3974 43.5375C10.1739 44.3803 10.2658 45.2758 10.656 46.0556L14.1111 51.8056" stroke="#B69091" stroke-linecap="round" stroke-linejoin="round"/>
<path id="Vector_10" d="M53.7222 61.3889L58.8691 54.9566C60.5007 52.9168 61.3894 50.3824 61.3888 47.7703V34.5556C61.3888 33.5389 60.985 32.5639 60.2661 31.845C59.5472 31.1261 58.5722 30.7222 57.5555 30.7222C56.5388 30.7222 55.5638 31.1261 54.8449 31.845C54.126 32.5639 53.7222 33.5389 53.7222 34.5556V44.4583" stroke="#B69091" stroke-linecap="round" stroke-linejoin="round"/>
<path id="Vector_11" d="M42.2222 61.3889V53.3747C42.2201 51.1004 42.8934 48.8768 44.1567 46.9858L47.0777 42.6158C47.3267 42.2005 47.6574 41.8402 48.0498 41.5565C48.4422 41.2728 48.888 41.0717 49.3604 40.9654C49.8328 40.8591 50.3218 40.8497 50.7979 40.9379C51.2739 41.0261 51.7271 41.2101 52.1301 41.4786C52.8558 41.9621 53.38 42.6941 53.604 43.537C53.828 44.3798 53.7364 45.2755 53.3465 46.0556L49.8888 51.8056" stroke="#B69091" stroke-linecap="round" stroke-linejoin="round"/>
</g>
</svg>
